<svg width="29" height="29" viewBox="0 0 29 29" fill="none" xmlns="http://www.w3.org/2000/svg">
<path d="M27.703 8.63299V20.4083C27.703 22.3602 26.9215 24.2321 25.5305 25.6123C24.1394 26.9925 22.2528 27.7678 20.2855 27.7678H8.4175C6.45026 27.7678 4.56359 26.9925 3.17254 25.6123C1.78148 24.2321 1 22.3602 1 20.4083V8.63299C1 6.68112 1.78148 4.80918 3.17254 3.429C4.56359 2.04882 6.45026 1.27344 8.4175 1.27344H20.2855C22.2528 1.27344 24.1394 2.04882 25.5305 3.429C26.9215 4.80918 27.703 6.68112 27.703 8.63299Z" stroke="#DCCFBE" stroke-width="1.5" stroke-linecap="round" stroke-linejoin="round"/>
<path d="M12.868 27.7678V14.5206C12.868 11.3001 13.6098 8.633 18.802 8.633M9.901 15.9925H18.802" stroke="#DCCFBE" stroke-width="1.5" stroke-linecap="round" stroke-linejoin="round"/>
</svg>
