<svg width="29" height="29" viewBox="0 0 29 29" fill="none" xmlns="http://www.w3.org/2000/svg">
<path d="M14.746 20.4083C16.3198 20.4083 17.8292 19.788 18.942 18.6838C20.0549 17.5797 20.68 16.0821 20.68 14.5206C20.68 12.9591 20.0549 11.4616 18.942 10.3574C17.8292 9.2533 16.3198 8.633 14.746 8.633C13.1722 8.633 11.6629 9.2533 10.5501 10.3574C9.43723 11.4616 8.81204 12.9591 8.81204 14.5206C8.81204 16.0821 9.43723 17.5797 10.5501 18.6838C11.6629 19.788 13.1722 20.4083 14.746 20.4083Z" stroke="#DCCFBE" stroke-width="1.5" stroke-linecap="round" stroke-linejoin="round"/>
<path d="M1.39453 20.4083V8.63299C1.39453 6.68112 2.17602 4.80918 3.56707 3.429C4.95812 2.04882 6.84479 1.27344 8.81203 1.27344H20.68C22.6473 1.27344 24.534 2.04882 25.925 3.429C27.3161 4.80918 28.0975 6.68112 28.0975 8.63299V20.4083C28.0975 22.3602 27.3161 24.2321 25.925 25.6123C24.534 26.9925 22.6473 27.7678 20.68 27.7678H8.81203C6.84479 27.7678 4.95812 26.9925 3.56707 25.6123C2.17602 24.2321 1.39453 22.3602 1.39453 20.4083Z" stroke="#DCCFBE" stroke-width="1.5"/>
<path d="M22.9053 6.44002L22.9201 6.42371" stroke="#DCCFBE" stroke-width="1.5" stroke-linecap="round" stroke-linejoin="round"/>
</svg>
