<svg width="16" height="16" viewBox="0 0 16 16" fill="none" xmlns="http://www.w3.org/2000/svg">
<path d="M8.75555 8.11081C8.60741 8.25854 8.44444 8.29548 8.26667 8.22161C8.08889 8.14774 8 8.00739 8 7.80056V0.88643C8 0.635275 8.08533 0.424601 8.256 0.254407C8.42667 0.0842135 8.63763 -0.000587884 8.88889 3.06722e-06H15.1111C15.363 3.06722e-06 15.5742 0.0850999 15.7449 0.255294C15.9156 0.425488 16.0006 0.635866 16 0.88643V5.31856C16 5.56972 15.9147 5.78039 15.744 5.95058C15.5733 6.12078 15.3624 6.20558 15.1111 6.20499H10.6667L8.75555 8.11081ZM9.77778 4.43214H14.2222V1.77286H9.77778V4.43214ZM15.0667 16C13.1556 16 11.2927 15.5751 9.47822 14.7253C7.6637 13.8755 6.0563 12.7527 4.656 11.3569C3.2557 9.96107 2.12978 8.35812 1.27822 6.54804C0.426667 4.73795 0.000592592 2.8803 0 0.975072C0 0.709144 0.0888888 0.487538 0.266667 0.310252C0.444444 0.132967 0.666667 0.0443243 0.933333 0.0443243H4.53333C4.74074 0.0443243 4.92593 0.110806 5.08889 0.24377C5.25185 0.376734 5.34815 0.546633 5.37778 0.753465L5.95555 3.85596C5.98518 4.06279 5.98133 4.2513 5.944 4.4215C5.90667 4.59169 5.82163 4.74298 5.68889 4.87535L3.55555 7.04709C4.17778 8.1108 4.95555 9.10803 5.88889 10.0388C6.82222 10.9695 7.85185 11.7747 8.97778 12.4543L11.0667 10.3712C11.2 10.2382 11.3742 10.1387 11.5893 10.0725C11.8044 10.0063 12.0154 9.98766 12.2222 10.0166L15.2889 10.6371C15.4963 10.6814 15.6667 10.7813 15.8 10.9367C15.9333 11.0922 16 11.273 16 11.4792V15.0693C16 15.3352 15.9111 15.5568 15.7333 15.7341C15.5556 15.9114 15.3333 16 15.0667 16ZM2.71111 5.36288L4.17778 3.90028L3.77778 1.81718H1.82222C1.8963 2.4229 2 3.02124 2.13333 3.61219C2.26667 4.20314 2.45926 4.78671 2.71111 5.36288ZM14.2222 14.1828V12.2327L12.1333 11.7895L10.6667 13.2521C11.2444 13.5032 11.8296 13.7101 12.4222 13.8726C13.0148 14.0351 13.6148 14.1385 14.2222 14.1828Z" fill="#DCCFBE"/>
</svg>
