<svg width="32" height="28" viewBox="0 0 32 28" fill="none" xmlns="http://www.w3.org/2000/svg">
<path d="M30.8851 1.30403L31.9517 1.23603C31.9379 1.03375 31.8626 0.839918 31.7352 0.678789C31.6079 0.517659 31.4342 0.396398 31.2358 0.330185C31.0375 0.263972 30.8233 0.25575 30.6202 0.306548C30.417 0.357347 30.2339 0.464909 30.0937 0.615767L30.8851 1.30403ZM29.8228 7.40158C29.8228 7.12831 29.7105 6.86624 29.5104 6.67302C29.3104 6.47979 29.0391 6.37124 28.7563 6.37124C28.4734 6.37124 28.2021 6.47979 28.0021 6.67302C27.802 6.86624 27.6897 7.12831 27.6897 7.40158H29.8228ZM1.06789 23.9715V22.9411C0.838868 22.9409 0.615842 23.0118 0.431801 23.1435C0.24776 23.2752 0.112478 23.4605 0.0459682 23.6723C-0.0205415 23.884 -0.0147466 24.1107 0.0624957 24.319C0.139738 24.5273 0.284325 24.706 0.474868 24.8287L1.06789 23.9715ZM3.19677 1.30403L4.19723 0.943415C4.12452 0.755291 3.9965 0.59179 3.82889 0.473012C3.66129 0.354235 3.46141 0.285358 3.25382 0.27485C3.04624 0.264341 2.84 0.31266 2.66046 0.413865C2.48092 0.515069 2.33591 0.664749 2.24325 0.844502L3.19677 1.30403ZM11.7166 19.8501L12.4717 20.5775C12.5999 20.4534 12.6931 20.2997 12.7425 20.131C12.792 19.9624 12.7961 19.7843 12.7545 19.6137C12.7128 19.4431 12.6268 19.2855 12.5045 19.156C12.3823 19.0264 12.2278 18.9291 12.0558 18.8734L11.7166 19.8501ZM27.1265 3.30907L26.3373 4.00146L26.7212 4.41153L27.2865 4.32911L27.1265 3.30907ZM29.8228 1.37204C29.9316 2.97524 29.8292 3.94788 29.5605 4.68148C29.3002 5.39242 28.8437 5.97765 28.0182 6.74216L29.4943 8.22997C30.4286 7.36448 31.1497 6.51548 31.572 5.36975C31.9837 4.24462 32.069 2.94227 31.9517 1.23603L29.8228 1.37204ZM29.8228 8.90175V7.40158H27.6897V8.90381H29.8228V8.90175ZM14.9121 7.57055V9.54674H17.0452V7.57055H14.9121ZM14.9121 9.54674V10.5771H17.0452V9.54674H14.9121ZM22.4528 0.273695C21.4614 0.274236 20.4798 0.463404 19.5641 0.830398C18.6484 1.19739 17.8165 1.73503 17.1159 2.4126C16.4153 3.09018 15.8597 3.89443 15.4808 4.77943C15.102 5.66443 14.9072 6.61286 14.9078 7.57055H17.041C17.0404 6.88329 17.18 6.20266 17.4518 5.56754C17.7236 4.93242 18.1223 4.35524 18.625 3.86899C19.1278 3.38274 19.7248 2.99694 20.3819 2.73362C21.0391 2.47031 21.7435 2.33464 22.4549 2.33437V0.273695H22.4528ZM27.6875 8.90175C27.6897 17.7956 20.2386 25.0018 11.0511 25.0018V27.0625C21.4182 27.0625 29.8228 18.9311 29.8228 8.90175H27.6875ZM2.19846 1.66465C3.35889 4.65675 7.71053 10.5771 15.9786 10.5771V8.5164C8.9051 8.5164 5.16568 3.44714 4.19509 0.943415L2.19846 1.66465ZM2.24325 0.844502C0.00983965 5.16368 -0.333598 9.3551 1.28973 12.9242C2.9088 16.483 6.39224 19.2196 11.3796 20.8269L12.0558 18.8734C7.45882 17.3897 4.55133 14.9746 3.24157 12.0937C1.93608 9.22321 2.12593 5.68503 4.15243 1.76356L2.24325 0.844502ZM10.9615 19.1227C9.6773 20.3653 5.81629 22.9411 1.06789 22.9411V25.0018C6.54156 25.0018 10.9167 22.0839 12.4717 20.5775L10.9615 19.1227ZM27.9179 2.61874C27.2283 1.87989 26.3855 1.28933 25.4444 0.885339C24.5033 0.481351 23.4848 0.272965 22.4549 0.273695V2.33437C23.9929 2.33437 25.3773 2.97524 26.3373 4.00146L27.9179 2.61874ZM27.2865 4.32911C28.9857 4.06094 30.5374 3.23575 31.6808 1.9923L30.0937 0.615767C29.2804 1.50338 28.1766 2.09472 26.9665 2.2911L27.2865 4.32911ZM0.474868 24.8287C3.97538 27.0831 7.64441 27.0625 11.0511 27.0625V25.0018C7.57401 25.0018 4.5492 24.9791 1.6609 23.1142L0.474868 24.8287Z" fill="#DCCFBE"/>
</svg>
